<svg width="56" height="56" viewBox="0 0 56 56" fill="none" xmlns="http://www.w3.org/2000/svg">
<path d="M47.9906 17.6747V6.46308C48.7104 6.2888 49.2456 5.64215 49.2456 4.86884C49.2456 3.96198 48.5104 3.22677 47.6035 3.22677H46.3485H44.5978V1.64206C44.5978 0.735202 43.8625 -7.62939e-06 42.9557 -7.62939e-06C42.0488 -7.62939e-06 41.3136 0.735202 41.3136 1.64206V3.22677H40.9662H39.5628C38.656 3.22677 37.9208 3.96198 37.9208 4.86884V9.18705C37.3765 9.0686 36.818 9.00785 36.2535 9.00785C31.9448 9.00785 28.4395 12.5132 28.4395 16.8219C28.4395 19.6744 30.0039 22.242 32.3802 23.606C30.8444 26.4977 29.9646 30.0283 29.9646 33.7863C29.9646 39.0365 31.6829 43.9515 34.6788 47.2708C36.232 48.9918 37.0873 51.1934 37.0873 53.4703V54.3579C37.0873 55.2648 37.8225 56 38.7293 56H47.1819C48.0888 56 48.824 55.2648 48.824 54.3579V53.4703C48.824 51.1935 49.6794 48.9918 51.2325 47.2708C54.2284 43.9513 55.9467 39.0364 55.9467 33.7863C55.9468 26.6653 52.7903 20.3582 47.9906 17.6747ZM44.7065 6.51092V18.6905C44.7065 19.3436 45.0936 19.9347 45.6923 20.1957C46.7377 20.6516 47.7023 21.355 48.5601 22.2514H37.3513C38.2092 21.3549 39.1737 20.6514 40.2191 20.1957C40.8178 19.9347 41.2049 19.3436 41.2049 18.6905V6.51092H44.7065ZM31.7236 16.8219C31.7236 14.3241 33.7557 12.292 36.2535 12.292C36.8294 12.292 37.3936 12.4026 37.9208 12.6113V17.6748C36.5283 18.4534 35.2754 19.5385 34.1964 20.8583C32.7138 20.0993 31.7236 18.5509 31.7236 16.8219ZM48.7947 45.0705C46.8671 47.2062 45.7349 49.8963 45.563 52.7157H40.3485C40.1765 49.8963 39.0444 47.2062 37.1168 45.0705C34.6586 42.3468 33.2489 38.2339 33.2489 33.7862C33.2489 30.7665 33.9276 27.8957 35.0949 25.5355H50.8166C51.984 27.8957 52.6627 30.7665 52.6627 33.7862C52.6626 38.2339 51.2528 42.3468 48.7947 45.0705Z" fill="#F3EFEB"/>
<path d="M31.6812 52.4074C30.1248 52.6903 28.6125 52.7542 27.148 52.6028C27.9516 50.5056 28.9419 46.9739 28.4745 43.1117C27.745 37.0836 23.759 32.684 23.5897 32.4997C23.2318 32.11 22.7087 31.9169 22.1831 31.9803C21.658 32.0439 21.1956 32.3565 20.941 32.8202C20.8205 33.0396 17.9991 38.2629 18.7285 44.291C19.0017 46.5489 19.7319 48.5782 20.5472 50.2432C20.0181 49.9026 19.4979 49.5277 18.9874 49.116C16.746 47.3085 15.3408 45.3091 14.8152 44.4891C14.8808 42.8503 14.8227 38.0204 12.2828 33.6492C9.23219 28.399 3.83284 25.9311 3.60448 25.8287C3.12182 25.6121 2.5645 25.6413 2.10713 25.907C1.64976 26.1728 1.34849 26.6425 1.2977 27.1691C1.27361 27.4182 0.743989 33.3312 3.79463 38.5813C6.3521 42.9828 10.5595 45.4283 11.9879 46.1647C12.5994 47.1364 14.2071 49.4536 16.8236 51.5895C20.3646 54.4802 24.4303 55.9622 28.7401 55.9622C29.9003 55.9622 31.0787 55.8547 32.2687 55.6384C33.161 55.4762 33.7528 54.6213 33.5906 53.7291C33.4282 52.8369 32.5734 52.2451 31.6812 52.4074ZM22.784 36.9461C23.767 38.5354 24.8934 40.855 25.2141 43.5062C25.535 46.1579 24.9943 48.6792 24.4189 50.4567C23.4359 48.8674 22.3096 46.5478 21.9888 43.8965C21.668 41.245 22.2086 38.7235 22.784 36.9461ZM6.63421 36.9314C5.29231 34.622 4.79334 32.092 4.62004 30.2318C6.15078 31.3039 8.10156 32.9901 9.44325 35.2993C10.7851 37.6087 11.2841 40.1387 11.4574 41.9988C9.92667 40.9268 7.97589 39.2406 6.63421 36.9314Z" fill="#F3EFEB"/>
<path d="M3.04452 44.9413C2.43586 45.1888 1.90886 45.5327 1.47809 45.9634C1.04743 46.3942 0.703582 46.9211 0.456067 47.5297C-0.429009 49.7068 0.162903 52.2775 1.96436 54.0789C3.21059 55.3251 4.82463 55.9924 6.42237 55.9924C7.13404 55.9924 7.84276 55.8599 8.5136 55.5871C9.12215 55.3397 9.64915 54.9958 10.0798 54.565C10.0798 54.565 10.0799 54.565 10.0799 54.5649C10.5107 54.1342 10.8545 53.6072 11.1019 52.9986C11.9871 50.8216 11.3951 48.2507 9.59376 46.4494C7.7923 44.6482 5.22169 44.0562 3.04452 44.9413ZM8.05962 51.7618C7.97818 51.962 7.8767 52.1238 7.7577 52.2428C7.6386 52.3618 7.47669 52.4635 7.27647 52.5449C6.12231 53.0142 4.97527 52.4453 4.28647 51.7567C3.59768 51.068 3.02897 49.9208 3.49817 48.7668C3.57962 48.5664 3.68131 48.4045 3.8002 48.2855C3.9192 48.1665 4.08099 48.065 4.28133 47.9836C4.57537 47.8641 4.86886 47.8119 5.15458 47.8119C5.99018 47.8119 6.75812 48.2585 7.27132 48.7718C7.96011 49.4606 8.52882 50.6076 8.05962 51.7618Z" fill="#F3EFEB"/>
</svg>
