<svg width="10" height="14" viewBox="0 0 10 14" fill="none" xmlns="http://www.w3.org/2000/svg">
<path d="M1.5563 0.223774L1.09452 0.682364C0.950312 0.82669 0.870864 1.01871 0.870864 1.22393C0.870864 1.42904 0.950312 1.62128 1.09452 1.76561L6.32601 6.99687L1.08872 12.2342C0.944507 12.3783 0.865173 12.5705 0.865173 12.7756C0.865173 12.9807 0.944507 13.1731 1.08872 13.3173L1.54765 13.776C1.84609 14.0747 2.33223 14.0747 2.63067 13.776L8.88872 7.54037C9.03282 7.39627 9.13435 7.20425 9.13435 6.99733L9.13435 6.99493C9.13435 6.78971 9.0327 6.59769 8.88872 6.4536L2.64763 0.223774C2.50353 0.0794477 2.3057 0.000226912 2.1006 -5.40021e-08C1.89538 -4.50316e-08 1.70029 0.0794477 1.5563 0.223774Z" fill="white"/>
</svg>
