<svg width="1920" height="2177" viewBox="0 0 1920 2177" fill="none" xmlns="http://www.w3.org/2000/svg">
<path d="M1976.72 304.466C1976.72 304.466 780.762 67.0624 38.1714 468.456L-35 513V16.0001H1996L1976.72 304.466Z" fill="#251B1C"/>
<path d="M679.5 107C679.5 107 883 135.5 1015.17 60.1227C1073.81 31.1638 1090.55 44.714 1113.52 48.3634C1135.49 51.7425 1150.86 52.3508 1191.32 38.2261C1208.55 32.3715 1227.01 32.3715 1244.23 38.2261" stroke="#B78454" stroke-width="5" stroke-miterlimit="10"/>
<path d="M-48 515.012L26 470.512C777 69.5123 1986.5 306.683 1986.5 306.683V157" stroke="#B78454" stroke-width="5" stroke-miterlimit="10"/>
<path d="M1214.5 237.512C1012 125.512 158 34.0001 0 34.0001" stroke="#B78454" stroke-width="5" stroke-miterlimit="10"/>
</svg>
