<?xml version="1.0" encoding="UTF-8"?> <svg xmlns="http://www.w3.org/2000/svg" width="52" height="52" viewBox="0 0 52 52" fill="none"><g clip-path="url(#clip0)"><path d="M45.9062 0.101562H6.09375C2.73346 0.101562 0 2.83502 0 6.19531V36.7656C0 40.1259 2.73346 42.8594 6.09375 42.8594H18.8145L26.0135 52.0643L33.0939 42.8594H45.9062C49.2665 42.8594 52 40.1259 52 36.7656V6.19531C52 2.83502 49.2665 0.101562 45.9062 0.101562ZM47.9375 36.7656C47.9375 37.8856 47.0262 38.7969 45.9062 38.7969H31.0936L25.9865 45.4357L20.7949 38.7969H6.09375C4.97379 38.7969 4.0625 37.8856 4.0625 36.7656V6.19531C4.0625 5.07535 4.97379 4.16406 6.09375 4.16406H45.9062C47.0262 4.16406 47.9375 5.07535 47.9375 6.19531V36.7656ZM23.8696 11.4766C23.8696 10.0741 25.0062 8.9375 26.4086 8.9375C27.8107 8.9375 28.9477 10.0741 28.9477 11.4766C28.9477 12.879 27.8107 14.0156 26.4086 14.0156C25.0062 14.0156 23.8696 12.879 23.8696 11.4766ZM29.1718 29.49L30.9532 33.1411L29.5729 33.8144C28.885 34.1504 28.1459 34.3158 27.4104 34.3158C26.3801 34.3158 25.3577 33.9913 24.4936 33.3557C23.013 32.2667 22.2656 30.4616 22.5429 28.645C22.5524 28.5815 22.5651 28.5184 22.581 28.4561L24.1933 22.0426C24.2266 21.6368 23.9918 21.3976 23.843 21.2881C23.6859 21.1726 23.3606 21.008 22.9523 21.2075C21.5709 21.8816 21.2865 22.02 21.2865 22.02L19.5075 18.3677C19.5083 18.3673 19.794 18.2281 21.1706 17.5564C22.823 16.7503 24.769 16.9264 26.2499 18.0154C27.7305 19.1041 28.478 20.9092 28.201 22.7258C28.1911 22.7893 28.1784 22.8524 28.163 22.9146L26.5507 29.3282C26.5173 29.734 26.7522 29.9732 26.9006 30.0827C27.0581 30.1986 27.383 30.3628 27.7916 30.1633L29.1718 29.49Z" fill="white"></path></g><defs><clipPath id="clip0"><rect width="52" height="52" fill="white"></rect></clipPath></defs></svg> 