<svg width="15" height="15" viewBox="0 0 15 15" fill="none" xmlns="http://www.w3.org/2000/svg">
<g clip-path="url(#clip0)">
<path d="M14.9023 3.39819L10.6406 7.6598L14.7971 11.8193C14.9229 11.603 15.0004 11.355 15.0004 11.0872V3.91309C15.0004 3.73127 14.963 3.55897 14.9023 3.39819Z" fill="#B78454"/>
<path d="M13.5315 2.44537H1.46627C1.22231 2.44537 0.995586 2.51088 0.792969 2.61667L7.19888 9.02252C7.38474 9.20838 7.70756 9.20838 7.89017 9.02252L14.2659 2.64987C14.0491 2.52322 13.8003 2.44537 13.5315 2.44537Z" fill="#B78454"/>
<path d="M0.123076 3.32843C0.0447363 3.50779 0 3.70501 0 3.91296V11.087C0 11.3506 0.0753809 11.5947 0.197549 11.8087L4.39893 7.60428L0.123076 3.32843Z" fill="#B78454"/>
<path d="M9.94547 8.35417L8.58568 9.7172C8.01451 10.2819 7.08908 10.2912 6.50851 9.7172L5.09329 8.29874L0.9375 12.4516C1.10229 12.5158 1.27998 12.5543 1.46722 12.5543H13.5324C13.7151 12.5543 13.8883 12.5167 14.0497 12.4554L9.94547 8.35417Z" fill="#B78454"/>
</g>
<defs>
<clipPath id="clip0">
<rect width="15" height="15" fill="white"/>
</clipPath>
</defs>
</svg>
