<svg width="13" height="17" viewBox="0 0 13 17" fill="none" xmlns="http://www.w3.org/2000/svg">
<path d="M5.32011 0.0995048C2.94217 0.524137 1.07379 2.47745 0.649155 4.85539C0.224522 7.14841 1.15871 9.27157 2.77232 10.5455C4.38592 11.9043 5.57489 13.6877 6.16938 15.726L6.50908 16.9999L6.93372 15.726C7.5282 13.6028 8.88703 11.8194 10.5006 10.3756C11.6896 9.3565 12.4539 7.74289 12.4539 5.95943C12.4539 2.30759 9.14181 -0.579907 5.32011 0.0995048ZM6.50908 9.35649C4.6407 9.35649 3.11202 7.82782 3.11202 5.95943C3.11202 4.09105 4.6407 2.56237 6.50908 2.56237C8.37747 2.56237 9.90615 4.09105 9.90615 5.95943C9.90615 7.82782 8.37747 9.35649 6.50908 9.35649Z" fill="#B78454"/>
</svg>
