<svg width="105" height="104" viewBox="0 0 105 104" fill="none" xmlns="http://www.w3.org/2000/svg">
<g clip-path="url(#clip0)">
<path d="M98.1186 46.9079C93.7181 42.4694 87.8844 39.8998 81.6355 39.6336C81.6059 39.2468 81.584 38.7138 81.584 37.9844C81.584 34.996 83.8784 25.8649 85.3248 20.8114L86.8049 15.6406L68.8433 15.6406L67.6401 17.5608C67.1629 18.3225 55.9492 36.5324 55.9492 63.9844C55.9492 77.4248 66.989 88.3594 80.5586 88.3594C94.1282 88.3594 105.168 77.4248 105.168 63.9844C105.168 57.5573 102.664 51.4928 98.1186 46.9079ZM80.5586 80.2344C71.5122 80.2344 64.1523 72.9446 64.1523 63.9844C64.1523 43.81 70.8863 28.8775 73.5474 23.7656H76.0348C74.8562 28.353 73.3809 34.7427 73.3809 37.9844C73.3809 40.5568 73.5736 42.6234 74.5152 44.3483C75.3537 45.8847 77.1075 47.7147 80.705 47.7342L80.8841 47.7386C89.751 47.9089 96.9649 55.1966 96.9649 63.9844C96.9649 72.9446 89.605 80.2344 80.5586 80.2344Z" fill="#B78454"/>
<path d="M42.1694 46.9079C37.7688 42.4694 31.9352 39.8998 25.6862 39.6335C25.6567 39.2468 25.6348 38.7138 25.6348 37.9844C25.6348 34.996 27.9292 25.8649 29.3756 20.8114L30.8556 15.6406L12.8941 15.6406L11.6909 17.5608C11.2137 18.3225 0 36.5324 0 63.9844C0 77.4248 11.0398 88.3594 24.6094 88.3594C38.179 88.3594 49.2188 77.4248 49.2188 63.9844C49.2188 57.5573 46.7152 51.4928 42.1694 46.9079ZM24.6094 80.2344C15.563 80.2344 8.20313 72.9446 8.20313 63.9844C8.20313 43.81 14.9371 28.8775 17.5982 23.7656H20.0856C18.907 28.353 17.4316 34.7427 17.4316 37.9844C17.4316 40.5567 17.6244 42.6233 18.5659 44.3483C19.4045 45.8847 21.1583 47.7147 24.7558 47.7342L24.9348 47.7386C33.8018 47.9089 41.0156 55.1966 41.0156 63.9844C41.0156 72.9446 33.6558 80.2344 24.6094 80.2344Z" fill="#B78454"/>
</g>
<defs>
<clipPath id="clip0">
<rect width="105" height="104" fill="white"/>
</clipPath>
</defs>
</svg>
