<svg width="14" height="12" viewBox="0 0 14 12" fill="none" xmlns="http://www.w3.org/2000/svg">
<path d="M8.51284 0.530252C8.28813 0.31622 7.93178 0.324658 7.71775 0.549658C7.50344 0.774658 7.51244 1.13072 7.73716 1.34503L12.0521 5.4375H0.8125C0.502 5.4375 0.25 5.6895 0.25 6C0.25 6.3105 0.502 6.5625 0.8125 6.5625H12.0341L7.73716 10.6553C7.51216 10.8696 7.50344 11.2256 7.71775 11.4506C7.82828 11.5665 7.9765 11.625 8.125 11.625C8.2645 11.625 8.404 11.5735 8.51284 11.4698L13.4204 6.79538C13.633 6.58303 13.75 6.30066 13.75 6C13.75 5.69935 13.633 5.41697 13.4105 5.19507L8.51284 0.530252Z" fill="#B78454"/>
</svg>
