<svg width="557" height="90" viewBox="0 0 557 90" fill="none" xmlns="http://www.w3.org/2000/svg">
<path d="M60.6119 87.7624V60.2901C60.6119 60.1243 60.1629 60.0414 59.265 60.0414C58.4487 60.0414 58.0405 60.1243 58.0405 60.2901C58.0405 63.4392 57.6323 66.5055 56.816 69.489C55.9997 72.4724 54.6528 75.1243 52.7752 77.4448C50.9793 79.7652 48.612 81.6298 45.6732 83.0387C42.7345 84.4475 39.1835 85.1519 35.0202 85.1519H24.7346C24.2448 85.1519 23.9999 84.9862 23.9999 84.6547V3.48066C23.9999 3.14917 24.2448 2.98342 24.7346 2.98342H34.408C34.4896 2.98342 34.5304 2.85912 34.5304 2.6105C34.5304 2.27901 34.5304 1.94752 34.5304 1.61602C34.5304 1.20166 34.5304 0.828731 34.5304 0.497239C34.5304 0.165746 34.4896 0 34.408 0H0.122448C0.122448 0 0.0816321 0.165746 0 0.497239C0 0.828731 0 1.20166 0 1.61602C0 1.94752 0 2.27901 0 2.6105C0.0816321 2.85912 0.122448 2.98342 0.122448 2.98342H10.0408C10.3673 2.98342 10.5306 3.14917 10.5306 3.48066V84.6547C10.5306 84.9862 10.3673 85.1519 10.0408 85.1519H0.122448C0.122448 85.1519 0.0816321 85.3177 0 85.6492C0 85.9807 0 86.3536 0 86.768C0 87.0994 0 87.4309 0 87.7624C0.0816321 88.011 0.122448 88.1354 0.122448 88.1354H60.2446C60.4895 88.1354 60.6119 88.011 60.6119 87.7624Z" fill="#F3EFEB"/>
<path d="M116.321 88.1354C116.375 88.1354 116.401 88.054 116.401 87.8912C116.401 87.6741 116.401 87.457 116.401 87.2399C116.401 86.9686 116.401 86.7244 116.401 86.5073C116.401 86.2902 116.375 86.1817 116.321 86.1817H109.746C109.372 86.1817 109.185 86.1003 109.185 85.9375L90.1809 29.2809C90.1275 29.1723 89.8335 29.1181 89.2989 29.1181C88.7643 29.1181 88.4703 29.1723 88.4169 29.2809L71.1772 82.7627C70.6961 84.3365 70.3486 85.3134 70.1348 85.6933C69.9744 86.0189 69.7339 86.1817 69.4132 86.1817H63.5597C63.5597 86.1817 63.5597 86.2902 63.5597 86.5073C63.5062 86.7244 63.4795 86.9686 63.4795 87.2399C63.4795 87.457 63.5062 87.6741 63.5597 87.8912C63.5597 88.054 63.5597 88.1354 63.5597 88.1354H78.3938C78.4473 88.1354 78.474 88.054 78.474 87.8912C78.5275 87.6741 78.5542 87.457 78.5542 87.2399C78.5542 86.9686 78.5275 86.7244 78.474 86.5073C78.474 86.2902 78.4473 86.1817 78.3938 86.1817H72.2998C72.1394 86.1817 72.086 85.9917 72.1394 85.6119C72.1929 85.1777 72.4334 84.228 72.8611 82.7627L77.1109 69.7383H94.5911L99.8031 85.9375C99.9634 86.1003 99.8565 86.1817 99.4823 86.1817H93.1478C93.0943 86.1817 93.0408 86.2902 92.9874 86.5073C92.9874 86.7244 92.9874 86.9686 92.9874 87.2399C92.9874 87.457 92.9874 87.6741 92.9874 87.8912C93.0408 88.054 93.0943 88.1354 93.1478 88.1354H116.321ZM94.11 67.7846H77.7523L86.0113 41.9798L94.11 67.7846Z" fill="#F3EFEB"/>
<path d="M235.506 88.1354C235.588 88.1354 235.629 88.011 235.629 87.7624C235.629 87.4309 235.629 87.0994 235.629 86.768C235.629 86.3536 235.629 85.9807 235.629 85.6492C235.629 85.3177 235.588 85.1519 235.506 85.1519H225.588C225.261 85.1519 225.098 84.9862 225.098 84.6547V3.48066C225.098 3.14917 225.261 2.98342 225.588 2.98342H235.506C235.588 2.98342 235.629 2.85912 235.629 2.6105C235.629 2.27901 235.629 1.94752 235.629 1.61602C235.629 1.20166 235.629 0.828731 235.629 0.497239C235.629 0.165746 235.588 0 235.506 0H212.241C212.078 0 211.833 0.207182 211.506 0.621546C211.18 1.03591 210.894 1.57459 210.649 2.23757L190.568 67.5L167.67 2.23757C167.017 0.745857 166.486 0 166.078 0H142.445C142.445 0 142.405 0.165746 142.323 0.497239C142.323 0.828731 142.323 1.20166 142.323 1.61602C142.323 1.94752 142.323 2.27901 142.323 2.6105C142.405 2.85912 142.445 2.98342 142.445 2.98342H152.241C152.568 2.98342 152.731 3.14917 152.731 3.48066V84.6547C152.731 84.9862 152.568 85.1519 152.241 85.1519H142.445C142.445 85.1519 142.405 85.3177 142.323 85.6492C142.323 85.9807 142.323 86.3536 142.323 86.768C142.323 87.0994 142.323 87.4309 142.323 87.7624C142.405 88.011 142.445 88.1354 142.445 88.1354H166.078C166.078 88.1354 166.078 88.011 166.078 87.7624C166.16 87.4309 166.2 87.0994 166.2 86.768C166.2 86.3536 166.16 85.9807 166.078 85.6492C166.078 85.3177 166.078 85.1519 166.078 85.1519H156.16C155.833 85.1519 155.67 84.9862 155.67 84.6547V7.83149L184.2 89.7514C184.282 89.9171 184.69 90 185.425 90C186.241 90 186.69 89.9171 186.772 89.7514L211.751 8.70166V84.6547C211.751 84.9862 211.547 85.1519 211.139 85.1519H201.466C201.384 85.1519 201.302 85.3177 201.221 85.6492C201.221 85.9807 201.221 86.3536 201.221 86.768C201.221 87.0994 201.221 87.4309 201.221 87.7624C201.302 88.011 201.384 88.1354 201.466 88.1354H235.506Z" fill="#F3EFEB"/>
<path d="M291.779 88.1354C291.832 88.1354 291.859 88.054 291.859 87.8912C291.859 87.6741 291.859 87.457 291.859 87.2399C291.859 86.9686 291.859 86.7244 291.859 86.5073C291.859 86.2902 291.832 86.1817 291.779 86.1817H285.204C284.829 86.1817 284.642 86.1003 284.642 85.9375L265.639 29.2809C265.585 29.1723 265.291 29.1181 264.757 29.1181C264.222 29.1181 263.928 29.1723 263.875 29.2809L246.635 82.7627C246.154 84.3365 245.806 85.3134 245.593 85.6933C245.432 86.0189 245.192 86.1817 244.871 86.1817H239.017C239.017 86.1817 239.017 86.2902 239.017 86.5073C238.964 86.7244 238.937 86.9686 238.937 87.2399C238.937 87.457 238.964 87.6741 239.017 87.8912C239.017 88.054 239.017 88.1354 239.017 88.1354H253.852C253.905 88.1354 253.932 88.054 253.932 87.8912C253.985 87.6741 254.012 87.457 254.012 87.2399C254.012 86.9686 253.985 86.7244 253.932 86.5073C253.932 86.2902 253.905 86.1817 253.852 86.1817H247.758C247.597 86.1817 247.544 85.9917 247.597 85.6119C247.651 85.1777 247.891 84.228 248.319 82.7627L252.569 69.7383H270.049L275.261 85.9375C275.421 86.1003 275.314 86.1817 274.94 86.1817H268.605C268.552 86.1817 268.499 86.2902 268.445 86.5073C268.445 86.7244 268.445 86.9686 268.445 87.2399C268.445 87.457 268.445 87.6741 268.445 87.8912C268.499 88.054 268.552 88.1354 268.605 88.1354H291.779ZM269.568 67.7846H253.21L261.469 41.9798L269.568 67.7846Z" fill="#F3EFEB"/>
<path d="M335.015 89.3564V69.4126C335.015 69.3041 334.721 69.2498 334.133 69.2498C333.599 69.2498 333.331 69.3041 333.331 69.4126C333.331 72.0718 332.904 74.5139 332.048 76.7389C331.246 78.9639 330.124 80.8905 328.681 82.5185C327.291 84.1466 325.634 85.4219 323.709 86.3445C321.785 87.2128 319.727 87.6469 317.535 87.6469C315.878 87.6469 314.247 87.457 312.644 87.0771C311.093 86.643 309.704 85.8289 308.474 84.635C306.71 82.7356 305.347 79.778 304.385 75.7621C303.476 71.6919 303.022 66.2108 303.022 59.3186C303.022 52.4808 303.476 47.0268 304.385 42.9566C305.347 38.8322 306.71 35.8203 308.474 33.9209C309.704 32.8355 311.04 32.0757 312.483 31.6416C313.98 31.2074 315.557 30.9904 317.214 30.9904C318.978 30.9904 320.742 31.5059 322.506 32.537C324.27 33.5139 325.847 34.7892 327.237 36.363C328.681 37.9368 329.83 39.7276 330.685 41.7356C331.54 43.7435 331.968 45.7515 331.968 47.7594C331.968 47.8679 332.235 47.9222 332.77 47.9222C333.358 47.9222 333.652 47.8679 333.652 47.7594V29.2809C333.652 29.1723 333.358 29.1181 332.77 29.1181C332.235 29.1181 331.968 29.1723 331.968 29.2809C331.861 29.715 331.487 30.1492 330.846 30.5833C330.204 31.0175 329.349 31.2346 328.28 31.2346C327.424 31.2346 326.516 31.126 325.553 30.909C324.645 30.6919 323.709 30.4477 322.747 30.1763C321.785 29.8507 320.822 29.5794 319.86 29.3623C318.951 29.1452 318.069 29.0367 317.214 29.0367C313.793 29.0367 310.639 29.8507 307.752 31.4788C304.866 33.1068 302.38 35.3047 300.295 38.0724C298.21 40.8401 296.58 44.0691 295.404 47.7594C294.228 51.3954 293.64 55.2485 293.64 59.3186C293.64 63.3345 294.228 67.1876 295.404 70.8779C296.633 74.5139 298.317 77.7158 300.456 80.4835C302.594 83.2512 305.106 85.4491 307.993 87.0771C310.933 88.7052 314.114 89.5192 317.535 89.5192C318.551 89.5192 319.62 89.3835 320.742 89.1122C321.865 88.8409 322.961 88.5424 324.03 88.2168C325.099 87.8912 326.141 87.5927 327.157 87.3213C328.226 87.05 329.188 86.9143 330.044 86.9143C331.059 86.9143 331.834 87.2128 332.369 87.8097C332.904 88.3524 333.224 88.868 333.331 89.3564C333.385 89.4107 333.679 89.4378 334.213 89.4378C334.748 89.4378 335.015 89.4107 335.015 89.3564Z" fill="#F3EFEB"/>
<path d="M364.857 88.1354C364.91 88.1354 364.937 88.054 364.937 87.8912C364.937 87.6741 364.937 87.457 364.937 87.2399C364.937 86.9686 364.937 86.7244 364.937 86.5073C364.937 86.2902 364.91 86.1817 364.857 86.1817H358.362C358.095 86.1817 357.961 86.0732 357.961 85.8561V32.6998C357.961 32.4827 358.095 32.3742 358.362 32.3742H364.857C364.91 32.3742 364.937 32.2928 364.937 32.13C364.937 31.9129 364.937 31.6958 364.937 31.4788C364.937 31.2074 364.937 30.9632 364.937 30.7461C364.937 30.5291 364.91 30.4205 364.857 30.4205H342.405C342.405 30.4205 342.378 30.5291 342.325 30.7461C342.325 30.9632 342.325 31.2074 342.325 31.4788C342.325 31.6958 342.325 31.9129 342.325 32.13C342.378 32.2928 342.405 32.3742 342.405 32.3742H348.74C349.061 32.3742 349.221 32.4827 349.221 32.6998V85.8561C349.221 86.0732 349.061 86.1817 348.74 86.1817H342.405C342.405 86.1817 342.378 86.2902 342.325 86.5073C342.325 86.7244 342.325 86.9686 342.325 87.2399C342.325 87.457 342.325 87.6741 342.325 87.8912C342.378 88.054 342.405 88.1354 342.405 88.1354H364.857Z" fill="#F3EFEB"/>
<path d="M421.79 32.3742C421.79 32.3742 421.79 32.2928 421.79 32.13C421.843 31.9129 421.87 31.6958 421.87 31.4788C421.87 31.2074 421.843 30.9632 421.79 30.7461C421.79 30.5291 421.79 30.4205 421.79 30.4205H406.394C406.287 30.4205 406.207 30.5291 406.154 30.7461C406.154 30.9632 406.154 31.2074 406.154 31.4788C406.154 31.6958 406.154 31.9129 406.154 32.13C406.207 32.2928 406.287 32.3742 406.394 32.3742H412.729C413.05 32.3742 413.21 32.4827 413.21 32.6998V72.0989L389.876 31.8858C389.449 31.2888 389.128 30.9089 388.914 30.7461C388.7 30.5291 388.46 30.4205 388.192 30.4205H372.075C372.022 30.4205 371.968 30.5291 371.915 30.7461C371.915 30.9632 371.915 31.2074 371.915 31.4788C371.915 31.6958 371.915 31.9129 371.915 32.13C371.968 32.2928 372.022 32.3742 372.075 32.3742H378.41C378.677 32.3742 378.811 32.4827 378.811 32.6998V85.8561C378.811 86.0732 378.677 86.1817 378.41 86.1817H372.075C372.022 86.1817 371.968 86.2902 371.915 86.5073C371.915 86.7244 371.915 86.9686 371.915 87.2399C371.915 87.457 371.915 87.6741 371.915 87.8912C371.968 88.054 372.022 88.1354 372.075 88.1354H387.551C387.551 88.1354 387.551 88.054 387.551 87.8912C387.604 87.6741 387.631 87.457 387.631 87.2399C387.631 86.9686 387.604 86.7244 387.551 86.5073C387.551 86.2902 387.551 86.1817 387.551 86.1817H381.056C380.842 86.1817 380.735 86.0732 380.735 85.8561V33.5953L413.13 89.1936C413.237 89.3564 413.557 89.4107 414.092 89.3564C414.68 89.3564 414.974 89.3021 414.974 89.1936V32.6998C414.974 32.4827 415.108 32.3742 415.375 32.3742H421.79Z" fill="#F3EFEB"/>
<path d="M475.952 88.1354C476.006 88.1354 476.033 88.054 476.033 87.8912C476.033 87.6741 476.033 87.457 476.033 87.2399C476.033 86.9686 476.033 86.7244 476.033 86.5073C476.033 86.2902 476.006 86.1817 475.952 86.1817H469.377C469.003 86.1817 468.816 86.1003 468.816 85.9375L449.812 29.2809C449.759 29.1723 449.465 29.1181 448.93 29.1181C448.396 29.1181 448.102 29.1723 448.048 29.2809L430.809 82.7627C430.327 84.3365 429.98 85.3134 429.766 85.6933C429.606 86.0189 429.365 86.1817 429.044 86.1817H423.191C423.191 86.1817 423.191 86.2902 423.191 86.5073C423.138 86.7244 423.111 86.9686 423.111 87.2399C423.111 87.457 423.138 87.6741 423.191 87.8912C423.191 88.054 423.191 88.1354 423.191 88.1354H438.025C438.079 88.1354 438.105 88.054 438.105 87.8912C438.159 87.6741 438.186 87.457 438.186 87.2399C438.186 86.9686 438.159 86.7244 438.105 86.5073C438.105 86.2902 438.079 86.1817 438.025 86.1817H431.931C431.771 86.1817 431.717 85.9917 431.771 85.6119C431.824 85.1777 432.065 84.228 432.492 82.7627L436.742 69.7383H454.222L459.434 85.9375C459.595 86.1003 459.488 86.1817 459.114 86.1817H452.779C452.726 86.1817 452.672 86.2902 452.619 86.5073C452.619 86.7244 452.619 86.9686 452.619 87.2399C452.619 87.457 452.619 87.6741 452.619 87.8912C452.672 88.054 452.726 88.1354 452.779 88.1354H475.952ZM453.741 67.7846H437.384L445.643 41.9798L453.741 67.7846Z" fill="#F3EFEB"/>
<path d="M501.029 88.1354C501.083 88.1354 501.11 88.054 501.11 87.8912C501.11 87.6741 501.11 87.457 501.11 87.2399C501.11 86.9686 501.11 86.7244 501.11 86.5073C501.11 86.2902 501.083 86.1817 501.029 86.1817H494.534C494.267 86.1817 494.134 86.0732 494.134 85.8561V32.6998C494.134 32.4827 494.267 32.3742 494.534 32.3742H501.029C501.083 32.3742 501.11 32.2928 501.11 32.13C501.11 31.9129 501.11 31.6958 501.11 31.4788C501.11 31.2074 501.11 30.9632 501.11 30.7461C501.11 30.5291 501.083 30.4205 501.029 30.4205H478.578C478.578 30.4205 478.551 30.5291 478.498 30.7461C478.498 30.9632 478.498 31.2074 478.498 31.4788C478.498 31.6958 478.498 31.9129 478.498 32.13C478.551 32.2928 478.578 32.3742 478.578 32.3742H484.912C485.233 32.3742 485.393 32.4827 485.393 32.6998V85.8561C485.393 86.0732 485.233 86.1817 484.912 86.1817H478.578C478.578 86.1817 478.551 86.2902 478.498 86.5073C478.498 86.7244 478.498 86.9686 478.498 87.2399C478.498 87.457 478.498 87.6741 478.498 87.8912C478.551 88.054 478.578 88.1354 478.578 88.1354H501.029Z" fill="#F3EFEB"/>
<path d="M556.92 88.1354C556.973 88.1354 557 88.054 557 87.8912C557 87.6741 557 87.457 557 87.2399C557 86.9686 557 86.7244 557 86.5073C557 86.2902 556.973 86.1817 556.92 86.1817H550.345C549.971 86.1817 549.783 86.1003 549.783 85.9375L530.78 29.2809C530.726 29.1723 530.432 29.1181 529.898 29.1181C529.363 29.1181 529.069 29.1723 529.016 29.2809L511.776 82.7627C511.295 84.3365 510.947 85.3134 510.734 85.6933C510.573 86.0189 510.333 86.1817 510.012 86.1817H504.159C504.159 86.1817 504.159 86.2902 504.159 86.5073C504.105 86.7244 504.078 86.9686 504.078 87.2399C504.078 87.457 504.105 87.6741 504.159 87.8912C504.159 88.054 504.159 88.1354 504.159 88.1354H518.993C519.046 88.1354 519.073 88.054 519.073 87.8912C519.126 87.6741 519.153 87.457 519.153 87.2399C519.153 86.9686 519.126 86.7244 519.073 86.5073C519.073 86.2902 519.046 86.1817 518.993 86.1817H512.899C512.738 86.1817 512.685 85.9917 512.738 85.6119C512.792 85.1777 513.032 84.228 513.46 82.7627L517.71 69.7383H535.19L540.402 85.9375C540.562 86.1003 540.455 86.1817 540.081 86.1817H533.747C533.693 86.1817 533.64 86.2902 533.586 86.5073C533.586 86.7244 533.586 86.9686 533.586 87.2399C533.586 87.457 533.586 87.6741 533.586 87.8912C533.64 88.054 533.693 88.1354 533.747 88.1354H556.92ZM534.709 67.7846H518.351L526.61 41.9798L534.709 67.7846Z" fill="#F3EFEB"/>
</svg>
