<svg width="1118" height="180" viewBox="0 0 1118 180" fill="none" xmlns="http://www.w3.org/2000/svg">
<path d="M121.659 175.525V120.58C121.659 120.249 120.758 120.083 118.956 120.083C117.317 120.083 116.498 120.249 116.498 120.58C116.498 126.878 115.679 133.011 114.04 138.978C112.402 144.945 109.698 150.249 105.929 154.89C102.325 159.53 97.5731 163.26 91.6744 166.077C85.7758 168.895 78.6483 170.304 70.2919 170.304H49.6467C48.6636 170.304 48.1721 169.972 48.1721 169.309V6.96132C48.1721 6.29834 48.6636 5.96685 49.6467 5.96685H69.063C69.2269 5.96685 69.3088 5.71823 69.3088 5.221C69.3088 4.55802 69.3088 3.89503 69.3088 3.23205C69.3088 2.40332 69.3088 1.65746 69.3088 0.994477C69.3088 0.331492 69.2269 0 69.063 0H0.245776C0.245776 0 0.16385 0.331492 0 0.994477C0 1.65746 0 2.40332 0 3.23205C0 3.89503 0 4.55802 0 5.221C0.16385 5.71823 0.245776 5.96685 0.245776 5.96685H20.1536C20.809 5.96685 21.1367 6.29834 21.1367 6.96132V169.309C21.1367 169.972 20.809 170.304 20.1536 170.304H0.245776C0.245776 170.304 0.16385 170.635 0 171.298C0 171.961 0 172.707 0 173.536C0 174.199 0 174.862 0 175.525C0.16385 176.022 0.245776 176.271 0.245776 176.271H120.922C121.413 176.271 121.659 176.022 121.659 175.525Z" fill="#F3EFEB"/>
<path d="M233.477 176.271C233.585 176.271 233.638 176.108 233.638 175.782C233.638 175.348 233.638 174.914 233.638 174.48C233.638 173.937 233.638 173.449 233.638 173.015C233.638 172.58 233.585 172.363 233.477 172.363H220.28C219.529 172.363 219.153 172.201 219.153 171.875L181.009 58.5618C180.902 58.3447 180.312 58.2362 179.239 58.2362C178.166 58.2362 177.576 58.3447 177.469 58.5618L142.866 165.525C141.9 168.673 141.202 170.627 140.773 171.387C140.451 172.038 139.969 172.363 139.325 172.363H127.576C127.576 172.363 127.576 172.58 127.576 173.015C127.469 173.449 127.415 173.937 127.415 174.48C127.415 174.914 127.469 175.348 127.576 175.782C127.576 176.108 127.576 176.271 127.576 176.271H157.351C157.458 176.271 157.512 176.108 157.512 175.782C157.619 175.348 157.673 174.914 157.673 174.48C157.673 173.937 157.619 173.449 157.512 173.015C157.512 172.58 157.458 172.363 157.351 172.363H145.119C144.797 172.363 144.69 171.983 144.797 171.224C144.904 170.355 145.387 168.456 146.245 165.525L154.775 139.477H189.861L200.323 171.875C200.645 172.201 200.43 172.363 199.679 172.363H186.964C186.857 172.363 186.75 172.58 186.643 173.015C186.643 173.449 186.643 173.937 186.643 174.48C186.643 174.914 186.643 175.348 186.643 175.782C186.75 176.108 186.857 176.271 186.964 176.271H233.477ZM188.896 135.569H156.063L172.64 83.9595L188.896 135.569Z" fill="#F3EFEB"/>
<path d="M472.704 176.271C472.867 176.271 472.949 176.022 472.949 175.525C472.949 174.862 472.949 174.199 472.949 173.536C472.949 172.707 472.949 171.961 472.949 171.298C472.949 170.635 472.867 170.304 472.704 170.304H452.796C452.14 170.304 451.813 169.972 451.813 169.309V6.96132C451.813 6.29834 452.14 5.96685 452.796 5.96685H472.704C472.867 5.96685 472.949 5.71823 472.949 5.221C472.949 4.55802 472.949 3.89503 472.949 3.23205C472.949 2.40332 472.949 1.65746 472.949 0.994477C472.949 0.331492 472.867 0 472.704 0H426.006C425.679 0 425.187 0.414364 424.532 1.24309C423.876 2.07182 423.303 3.14917 422.811 4.47514L382.504 135L336.544 4.47514C335.233 1.49171 334.168 0 333.349 0H285.914C285.914 0 285.832 0.331492 285.668 0.994477C285.668 1.65746 285.668 2.40332 285.668 3.23205C285.668 3.89503 285.668 4.55802 285.668 5.221C285.832 5.71823 285.914 5.96685 285.914 5.96685H305.576C306.231 5.96685 306.559 6.29834 306.559 6.96132V169.309C306.559 169.972 306.231 170.304 305.576 170.304H285.914C285.914 170.304 285.832 170.635 285.668 171.298C285.668 171.961 285.668 172.707 285.668 173.536C285.668 174.199 285.668 174.862 285.668 175.525C285.832 176.022 285.914 176.271 285.914 176.271H333.349C333.349 176.271 333.349 176.022 333.349 175.525C333.513 174.862 333.595 174.199 333.595 173.536C333.595 172.707 333.513 171.961 333.349 171.298C333.349 170.635 333.349 170.304 333.349 170.304H313.441C312.785 170.304 312.458 169.972 312.458 169.309V15.663L369.724 179.503C369.887 179.834 370.707 180 372.181 180C373.82 180 374.721 179.834 374.885 179.503L425.023 17.4033V169.309C425.023 169.972 424.614 170.304 423.794 170.304H404.378C404.214 170.304 404.05 170.635 403.886 171.298C403.886 171.961 403.886 172.707 403.886 173.536C403.886 174.199 403.886 174.862 403.886 175.525C404.05 176.022 404.214 176.271 404.378 176.271H472.704Z" fill="#F3EFEB"/>
<path d="M585.653 176.271C585.76 176.271 585.814 176.108 585.814 175.782C585.814 175.348 585.814 174.914 585.814 174.48C585.814 173.937 585.814 173.449 585.814 173.015C585.814 172.58 585.76 172.363 585.653 172.363H572.455C571.704 172.363 571.329 172.201 571.329 171.875L533.185 58.5618C533.078 58.3447 532.488 58.2362 531.415 58.2362C530.342 58.2362 529.752 58.3447 529.644 58.5618L495.041 165.525C494.075 168.673 493.378 170.627 492.949 171.387C492.627 172.038 492.144 172.363 491.5 172.363H479.751C479.751 172.363 479.751 172.58 479.751 173.015C479.644 173.449 479.59 173.937 479.59 174.48C479.59 174.914 479.644 175.348 479.751 175.782C479.751 176.108 479.751 176.271 479.751 176.271H509.526C509.633 176.271 509.687 176.108 509.687 175.782C509.794 175.348 509.848 174.914 509.848 174.48C509.848 173.937 509.794 173.449 509.687 173.015C509.687 172.58 509.633 172.363 509.526 172.363H497.294C496.972 172.363 496.865 171.983 496.972 171.224C497.08 170.355 497.563 168.456 498.421 165.525L506.951 139.477H542.037L552.498 171.875C552.82 172.201 552.606 172.363 551.855 172.363H539.14C539.033 172.363 538.925 172.58 538.818 173.015C538.818 173.449 538.818 173.937 538.818 174.48C538.818 174.914 538.818 175.348 538.818 175.782C538.925 176.108 539.033 176.271 539.14 176.271H585.653ZM541.071 135.569H508.239L524.816 83.9595L541.071 135.569Z" fill="#F3EFEB"/>
<path d="M672.436 178.713V138.825C672.436 138.608 671.846 138.5 670.666 138.5C669.593 138.5 669.056 138.608 669.056 138.825C669.056 144.144 668.198 149.028 666.481 153.478C664.872 157.928 662.618 161.781 659.721 165.037C656.932 168.293 653.606 170.844 649.743 172.689C645.88 174.426 641.749 175.294 637.35 175.294C634.024 175.294 630.751 174.914 627.533 174.154C624.421 173.286 621.631 171.658 619.163 169.27C615.623 165.471 612.887 159.556 610.955 151.524C609.131 143.384 608.219 132.422 608.219 118.637C608.219 104.962 609.131 94.0536 610.955 85.9132C612.887 77.6644 615.623 71.6405 619.163 67.8417C621.631 65.671 624.314 64.1515 627.211 63.2832C630.215 62.4149 633.38 61.9807 636.706 61.9807C640.247 61.9807 643.788 63.0118 647.329 65.074C650.869 67.0277 654.035 69.5783 656.824 72.7259C659.721 75.8735 662.028 79.4552 663.745 83.4711C665.462 87.487 666.32 91.5029 666.32 95.5188C666.32 95.7359 666.857 95.8444 667.93 95.8444C669.11 95.8444 669.7 95.7359 669.7 95.5188V58.5618C669.7 58.3447 669.11 58.2362 667.93 58.2362C666.857 58.2362 666.32 58.3447 666.32 58.5618C666.106 59.4301 665.354 60.2984 664.067 61.1667C662.779 62.035 661.063 62.4691 658.917 62.4691C657.2 62.4691 655.376 62.252 653.445 61.8179C651.621 61.3838 649.743 60.8953 647.812 60.3526C645.88 59.7014 643.949 59.1587 642.018 58.7246C640.193 58.2904 638.423 58.0734 636.706 58.0734C629.839 58.0734 623.509 59.7014 617.715 62.9575C611.921 66.2137 606.932 70.6094 602.747 76.1449C598.562 81.6803 595.29 88.1383 592.929 95.5188C590.569 102.791 589.389 110.497 589.389 118.637C589.389 126.669 590.569 134.375 592.929 141.756C595.397 149.028 598.777 155.432 603.069 160.967C607.361 166.502 612.404 170.898 618.198 174.154C624.099 177.41 630.483 179.038 637.35 179.038C639.389 179.038 641.535 178.767 643.788 178.224C646.041 177.682 648.241 177.085 650.387 176.434C652.533 175.782 654.625 175.185 656.664 174.643C658.809 174.1 660.741 173.829 662.458 173.829C664.496 173.829 666.052 174.426 667.125 175.619C668.198 176.705 668.842 177.736 669.056 178.713C669.164 178.821 669.754 178.876 670.827 178.876C671.9 178.876 672.436 178.821 672.436 178.713Z" fill="#F3EFEB"/>
<path d="M732.334 176.271C732.441 176.271 732.495 176.108 732.495 175.782C732.495 175.348 732.495 174.914 732.495 174.48C732.495 173.937 732.495 173.449 732.495 173.015C732.495 172.58 732.441 172.363 732.334 172.363H719.297C718.761 172.363 718.493 172.146 718.493 171.712V65.3996C718.493 64.9655 718.761 64.7484 719.297 64.7484H732.334C732.441 64.7484 732.495 64.5856 732.495 64.26C732.495 63.8258 732.495 63.3917 732.495 62.9575C732.495 62.4149 732.495 61.9264 732.495 61.4923C732.495 61.0581 732.441 60.8411 732.334 60.8411H687.269C687.269 60.8411 687.216 61.0581 687.108 61.4923C687.108 61.9264 687.108 62.4149 687.108 62.9575C687.108 63.3917 687.108 63.8258 687.108 64.26C687.216 64.5856 687.269 64.7484 687.269 64.7484H699.984C700.628 64.7484 700.95 64.9655 700.95 65.3996V171.712C700.95 172.146 700.628 172.363 699.984 172.363H687.269C687.269 172.363 687.216 172.58 687.108 173.015C687.108 173.449 687.108 173.937 687.108 174.48C687.108 174.914 687.108 175.348 687.108 175.782C687.216 176.108 687.269 176.271 687.269 176.271H732.334Z" fill="#F3EFEB"/>
<path d="M846.608 64.7484C846.608 64.7484 846.608 64.5856 846.608 64.26C846.716 63.8258 846.769 63.3917 846.769 62.9575C846.769 62.4149 846.716 61.9264 846.608 61.4923C846.608 61.0581 846.608 60.8411 846.608 60.8411H815.707C815.492 60.8411 815.331 61.0581 815.224 61.4923C815.224 61.9264 815.224 62.4149 815.224 62.9575C815.224 63.3917 815.224 63.8258 815.224 64.26C815.331 64.5856 815.492 64.7484 815.707 64.7484H828.422C829.065 64.7484 829.387 64.9655 829.387 65.3996V144.198L782.552 63.7716C781.694 62.5777 781.05 61.8179 780.621 61.4923C780.192 61.0581 779.709 60.8411 779.173 60.8411H746.823C746.715 60.8411 746.608 61.0581 746.501 61.4923C746.501 61.9264 746.501 62.4149 746.501 62.9575C746.501 63.3917 746.501 63.8258 746.501 64.26C746.608 64.5856 746.715 64.7484 746.823 64.7484H759.537C760.074 64.7484 760.342 64.9655 760.342 65.3996V171.712C760.342 172.146 760.074 172.363 759.537 172.363H746.823C746.715 172.363 746.608 172.58 746.501 173.015C746.501 173.449 746.501 173.937 746.501 174.48C746.501 174.914 746.501 175.348 746.501 175.782C746.608 176.108 746.715 176.271 746.823 176.271H777.885C777.885 176.271 777.885 176.108 777.885 175.782C777.992 175.348 778.046 174.914 778.046 174.48C778.046 173.937 777.992 173.449 777.885 173.015C777.885 172.58 777.885 172.363 777.885 172.363H764.849C764.419 172.363 764.205 172.146 764.205 171.712V67.1905L829.226 178.387C829.441 178.713 830.085 178.821 831.158 178.713C832.338 178.713 832.928 178.604 832.928 178.387V65.3996C832.928 64.9655 833.196 64.7484 833.733 64.7484H846.608Z" fill="#F3EFEB"/>
<path d="M955.323 176.271C955.43 176.271 955.484 176.108 955.484 175.782C955.484 175.348 955.484 174.914 955.484 174.48C955.484 173.937 955.484 173.449 955.484 173.015C955.484 172.58 955.43 172.363 955.323 172.363H942.125C941.374 172.363 940.999 172.201 940.999 171.875L902.855 58.5618C902.747 58.3447 902.157 58.2362 901.084 58.2362C900.011 58.2362 899.421 58.3447 899.314 58.5618L864.711 165.525C863.745 168.673 863.048 170.627 862.619 171.387C862.297 172.038 861.814 172.363 861.17 172.363H849.421C849.421 172.363 849.421 172.58 849.421 173.015C849.314 173.449 849.26 173.937 849.26 174.48C849.26 174.914 849.314 175.348 849.421 175.782C849.421 176.108 849.421 176.271 849.421 176.271H879.196C879.303 176.271 879.357 176.108 879.357 175.782C879.464 175.348 879.518 174.914 879.518 174.48C879.518 173.937 879.464 173.449 879.357 173.015C879.357 172.58 879.303 172.363 879.196 172.363H866.964C866.642 172.363 866.535 171.983 866.642 171.224C866.749 170.355 867.232 168.456 868.091 165.525L876.621 139.477H911.707L922.168 171.875C922.49 172.201 922.275 172.363 921.524 172.363H908.81C908.702 172.363 908.595 172.58 908.488 173.015C908.488 173.449 908.488 173.937 908.488 174.48C908.488 174.914 908.488 175.348 908.488 175.782C908.595 176.108 908.702 176.271 908.81 176.271H955.323ZM910.741 135.569H877.908L894.486 83.9595L910.741 135.569Z" fill="#F3EFEB"/>
<path d="M1005.66 176.271C1005.76 176.271 1005.82 176.108 1005.82 175.782C1005.82 175.348 1005.82 174.914 1005.82 174.48C1005.82 173.937 1005.82 173.449 1005.82 173.015C1005.82 172.58 1005.76 172.363 1005.66 172.363H992.62C992.084 172.363 991.816 172.146 991.816 171.712V65.3996C991.816 64.9655 992.084 64.7484 992.62 64.7484H1005.66C1005.76 64.7484 1005.82 64.5856 1005.82 64.26C1005.82 63.8258 1005.82 63.3917 1005.82 62.9575C1005.82 62.4149 1005.82 61.9264 1005.82 61.4923C1005.82 61.0581 1005.76 60.8411 1005.66 60.8411H960.592C960.592 60.8411 960.539 61.0581 960.432 61.4923C960.432 61.9264 960.432 62.4149 960.432 62.9575C960.432 63.3917 960.432 63.8258 960.432 64.26C960.539 64.5856 960.592 64.7484 960.592 64.7484H973.307C973.951 64.7484 974.273 64.9655 974.273 65.3996V171.712C974.273 172.146 973.951 172.363 973.307 172.363H960.592C960.592 172.363 960.539 172.58 960.432 173.015C960.432 173.449 960.432 173.937 960.432 174.48C960.432 174.914 960.432 175.348 960.432 175.782C960.539 176.108 960.592 176.271 960.592 176.271H1005.66Z" fill="#F3EFEB"/>
<path d="M1117.84 176.271C1117.95 176.271 1118 176.108 1118 175.782C1118 175.348 1118 174.914 1118 174.48C1118 173.937 1118 173.449 1118 173.015C1118 172.58 1117.95 172.363 1117.84 172.363H1104.64C1103.89 172.363 1103.52 172.201 1103.52 171.875L1065.37 58.5618C1065.26 58.3447 1064.67 58.2362 1063.6 58.2362C1062.53 58.2362 1061.94 58.3447 1061.83 58.5618L1027.23 165.525C1026.26 168.673 1025.56 170.627 1025.14 171.387C1024.81 172.038 1024.33 172.363 1023.69 172.363H1011.94C1011.94 172.363 1011.94 172.58 1011.94 173.015C1011.83 173.449 1011.78 173.937 1011.78 174.48C1011.78 174.914 1011.83 175.348 1011.94 175.782C1011.94 176.108 1011.94 176.271 1011.94 176.271H1041.71C1041.82 176.271 1041.87 176.108 1041.87 175.782C1041.98 175.348 1042.03 174.914 1042.03 174.48C1042.03 173.937 1041.98 173.449 1041.87 173.015C1041.87 172.58 1041.82 172.363 1041.71 172.363H1029.48C1029.16 172.363 1029.05 171.983 1029.16 171.224C1029.27 170.355 1029.75 168.456 1030.61 165.525L1039.14 139.477H1074.22L1084.68 171.875C1085.01 172.201 1084.79 172.363 1084.04 172.363H1071.33C1071.22 172.363 1071.11 172.58 1071 173.015C1071 173.449 1071 173.937 1071 174.48C1071 174.914 1071 175.348 1071 175.782C1071.11 176.108 1071.22 176.271 1071.33 176.271H1117.84ZM1073.26 135.569H1040.42L1057 83.9595L1073.26 135.569Z" fill="#F3EFEB"/>
</svg>
