<svg width="34" height="34" viewBox="0 0 34 34" fill="none" xmlns="http://www.w3.org/2000/svg">
<g clip-path="url(#clip0)">
<path d="M16.9735 -6.10352e-05C11.459 -6.10352e-05 6.97266 4.48625 6.97266 10.0008V23.9991C6.97266 29.5136 11.459 33.9999 16.9735 33.9999C22.4881 33.9999 26.9744 29.5136 26.9744 23.9991V10.0008C26.9744 4.48625 22.4881 -6.10352e-05 16.9735 -6.10352e-05ZM24.9345 23.9991C24.9345 28.3886 21.3631 31.96 16.9735 31.96C12.584 31.96 9.01257 28.3886 9.01257 23.9991V10.0008C9.01257 5.61127 12.584 2.03986 16.9735 2.03986C21.3631 2.03986 24.9345 5.61127 24.9345 10.0008V23.9991Z" fill="white"/>
<path d="M16.9731 6.76349C16.4097 6.76349 15.9531 7.22003 15.9531 7.78345V12.4781C15.9531 13.0412 16.4097 13.498 16.9731 13.498C17.5362 13.498 17.993 13.0412 17.993 12.4781V7.78345C17.993 7.22003 17.5365 6.76349 16.9731 6.76349Z" fill="white"/>
</g>
<defs>
<clipPath id="clip0">
<rect width="34" height="34" fill="white"/>
</clipPath>
</defs>
</svg>
