<svg width="153" height="152" viewBox="0 0 153 152" fill="none" xmlns="http://www.w3.org/2000/svg">
<g clip-path="url(#clip0)">
<path d="M142.974 68.5576C136.562 62.0706 128.061 58.3152 118.956 57.926C118.913 57.3607 118.881 56.5817 118.881 55.5156C118.881 51.148 122.224 37.8026 124.332 30.4166L126.488 22.8594L100.316 22.8594L98.5626 25.6657C97.8673 26.779 81.5273 53.3936 81.5273 93.5156C81.5273 113.159 97.6139 129.141 117.387 129.141C137.16 129.141 153.246 113.159 153.246 93.5156C153.246 84.1222 149.598 75.2587 142.974 68.5576ZM117.387 117.266C104.205 117.266 93.4805 106.611 93.4805 93.5156C93.4805 64.03 103.293 42.2055 107.17 34.7344H110.795C109.078 41.439 106.928 50.7778 106.928 55.5156C106.928 59.2753 107.209 62.2957 108.581 64.8167C109.802 67.0623 112.358 69.7368 117.6 69.7653L117.861 69.7719C130.781 70.0206 141.293 80.6719 141.293 93.5156C141.293 106.611 130.569 117.266 117.387 117.266Z" fill="#B78454"/>
<path d="M61.4468 68.5576C55.0346 62.0706 46.5341 58.3152 37.4285 57.926C37.3855 57.3607 37.3535 56.5817 37.3535 55.5156C37.3535 51.148 40.6968 37.8026 42.8044 30.4166L44.9611 22.8594L18.7885 22.8594L17.0353 25.6657C16.3399 26.779 0 53.3936 0 93.5156C0 113.159 16.0865 129.141 35.8594 129.141C55.6322 129.141 71.7188 113.159 71.7188 93.5156C71.7188 84.1222 68.0707 75.2587 61.4468 68.5576ZM35.8594 117.266C22.6775 117.266 11.9531 106.611 11.9531 93.5156C11.9531 64.03 21.7654 42.2055 25.643 34.7344H29.2675C27.5502 41.439 25.4004 50.7778 25.4004 55.5156C25.4004 59.2752 25.6813 62.2957 27.0532 64.8167C28.2751 67.0623 30.8307 69.7368 36.0727 69.7653L36.3336 69.7719C49.2541 70.0206 59.7656 80.6719 59.7656 93.5156C59.7656 106.611 49.0413 117.266 35.8594 117.266Z" fill="#B78454"/>
</g>
<defs>
<clipPath id="clip0">
<rect width="153" height="152" fill="white"/>
</clipPath>
</defs>
</svg>
